# xmcd
#
# Track frame offsets: 
#        150
#        22303
#        41663
#        64871
#        85121
#        88704
#        113971
#        131375
#        150371
#        169967
#        196430
#        214101
#
# Disc length: 3069 seconds
#
# Revision: 2
# Processed by: cddbd v1.5.2PL0 Copyright (c) Steve Scherf et al.
# Submitted via: ExactAudioCopy v1.0b3
#
DISCID=a30bfb0c
DTITLE=Casa Banditos - Rasta luego
DYEAR=2006
DGENRE=Reggae
TTITLE0=Conflicto de generación
TTITLE1=Another war
TTITLE2=Remue-méninges
TTITLE3=Ven conmigo
TTITLE4=L'intro sale
TTITLE5=L'oncle sale 
TTITLE6=Siempre listos
TTITLE7=Ragatinunk
TTITLE8=Siouplai
TTITLE9=Hoy me muero
TTITLE10=Cerveza (live)
TTITLE11=Bouillave (live)
EXTD=YEAR: 2006
EXTT0=
EXTT1=
EXTT2=
EXTT3=
EXTT4=
EXTT5=
EXTT6=
EXTT7=
EXTT8=
EXTT9=
EXTT10=
EXTT11=
PLAYORDER=
